# xmcd
#
# Track frame offsets: 
#        150
#        13039
#        25346
#        42187
#        57064
#        72214
#        88404
#        105022
#        113239
#        127959
#        144709
#        160592
#        175278
#        183244
#        198422
#        214019
#        227946
#        235617
#        249677
#        264700
#
# Disc length: 3604 seconds
#
# Revision: 1
# Processed by: cddbd v1.5.2PL0 Copyright (c) Steve Scherf et al.
# Submitted via: ExactAudioCopyFreeDBPlugin 1.0
#
DISCID=110e1214
DTITLE=Hiob - Drama Konkret
DYEAR=2011
DGENRE=Hip Hop
TTITLE0=Drama Konkret
TTITLE1=Gardine
TTITLE2=Letzte Nacht feat. Yassin
TTITLE3=Oktober
TTITLE4=Aschenputtelkomplex feat. Sylabil Spill
TTITLE5=Hundehölle feat. Lunte
TTITLE6=99 Karrees
TTITLE7=400-€-Katze
TTITLE8=Aberwitz feat. Pierre Sonality
TTITLE9=Tränen
TTITLE10=Brief an mich
TTITLE11=Blankoscheck feat. Morlockk Dilemma
TTITLE12=Muskote-Blättchen
TTITLE13=Ich weiss ich kann feat. Morlockk Dilemma
TTITLE14=Zement
TTITLE15=Alles
TTITLE16=Dank and Gruss
TTITLE17=Christina (Remix) feat. Morlockk Dilemma
TTITLE18=Käfig (Remix)
TTITLE19=Outro
EXTD=
EXTT0=
EXTT1=
EXTT2=
EXTT3=
EXTT4=
EXTT5=
EXTT6=
EXTT7=
EXTT8=
EXTT9=
EXTT10=
EXTT11=
EXTT12=
EXTT13=
EXTT14=
EXTT15=
EXTT16=
EXTT17=
EXTT18=
EXTT19=
PLAYORDER=
